<svg id="visual" viewBox="0 0 1920 1080" width="1920" height="1080" xmlns="http://www.w3.org/2000/svg" xmlns:xlink="http://www.w3.org/1999/xlink" version="1.1"><path d="M0 708L128 708L128 697L256 697L256 664L384 664L384 667L512 667L512 717L640 717L640 683L768 683L768 673L896 673L896 732L1024 732L1024 676L1152 676L1152 672L1280 672L1280 713L1408 713L1408 727L1536 727L1536 679L1664 679L1664 676L1792 676L1792 671L1920 671L1920 679L1920 1081L1920 1081L1792 1081L1792 1081L1664 1081L1664 1081L1536 1081L1536 1081L1408 1081L1408 1081L1280 1081L1280 1081L1152 1081L1152 1081L1024 1081L1024 1081L896 1081L896 1081L768 1081L768 1081L640 1081L640 1081L512 1081L512 1081L384 1081L384 1081L256 1081L256 1081L128 1081L128 1081L0 1081Z" fill="#70ef8f"></path><path d="M0 785L128 785L128 697L256 697L256 740L384 740L384 710L512 710L512 740L640 740L640 702L768 702L768 752L896 752L896 727L1024 727L1024 752L1152 752L1152 765L1280 765L1280 701L1408 701L1408 737L1536 737L1536 763L1664 763L1664 770L1792 770L1792 747L1920 747L1920 787L1920 1081L1920 1081L1792 1081L1792 1081L1664 1081L1664 1081L1536 1081L1536 1081L1408 1081L1408 1081L1280 1081L1280 1081L1152 1081L1152 1081L1024 1081L1024 1081L896 1081L896 1081L768 1081L768 1081L640 1081L640 1081L512 1081L512 1081L384 1081L384 1081L256 1081L256 1081L128 1081L128 1081L0 1081Z" fill="#68e380"></path><path d="M0 836L128 836L128 749L256 749L256 769L384 769L384 809L512 809L512 792L640 792L640 750L768 750L768 790L896 790L896 787L1024 787L1024 810L1152 810L1152 781L1280 781L1280 832L1408 832L1408 834L1536 834L1536 787L1664 787L1664 821L1792 821L1792 768L1920 768L1920 764L1920 1081L1920 1081L1792 1081L1792 1081L1664 1081L1664 1081L1536 1081L1536 1081L1408 1081L1408 1081L1280 1081L1280 1081L1152 1081L1152 1081L1024 1081L1024 1081L896 1081L896 1081L768 1081L768 1081L640 1081L640 1081L512 1081L512 1081L384 1081L384 1081L256 1081L256 1081L128 1081L128 1081L0 1081Z" fill="#61d770"></path><path d="M0 870L128 870L128 870L256 870L256 803L384 803L384 877L512 877L512 813L640 813L640 875L768 875L768 848L896 848L896 873L1024 873L1024 813L1152 813L1152 865L1280 865L1280 813L1408 813L1408 818L1536 818L1536 794L1664 794L1664 857L1792 857L1792 815L1920 815L1920 855L1920 1081L1920 1081L1792 1081L1792 1081L1664 1081L1664 1081L1536 1081L1536 1081L1408 1081L1408 1081L1280 1081L1280 1081L1152 1081L1152 1081L1024 1081L1024 1081L896 1081L896 1081L768 1081L768 1081L640 1081L640 1081L512 1081L512 1081L384 1081L384 1081L256 1081L256 1081L128 1081L128 1081L0 1081Z" fill="#5acb61"></path><path d="M0 901L128 901L128 909L256 909L256 865L384 865L384 889L512 889L512 871L640 871L640 855L768 855L768 932L896 932L896 867L1024 867L1024 901L1152 901L1152 931L1280 931L1280 855L1408 855L1408 913L1536 913L1536 932L1664 932L1664 911L1792 911L1792 841L1920 841L1920 906L1920 1081L1920 1081L1792 1081L1792 1081L1664 1081L1664 1081L1536 1081L1536 1081L1408 1081L1408 1081L1280 1081L1280 1081L1152 1081L1152 1081L1024 1081L1024 1081L896 1081L896 1081L768 1081L768 1081L640 1081L640 1081L512 1081L512 1081L384 1081L384 1081L256 1081L256 1081L128 1081L128 1081L0 1081Z" fill="#53bf51"></path><path d="M0 893L128 893L128 932L256 932L256 928L384 928L384 902L512 902L512 958L640 958L640 913L768 913L768 961L896 961L896 948L1024 948L1024 905L1152 905L1152 967L1280 967L1280 973L1408 973L1408 965L1536 965L1536 908L1664 908L1664 918L1792 918L1792 962L1920 962L1920 955L1920 1081L1920 1081L1792 1081L1792 1081L1664 1081L1664 1081L1536 1081L1536 1081L1408 1081L1408 1081L1280 1081L1280 1081L1152 1081L1152 1081L1024 1081L1024 1081L896 1081L896 1081L768 1081L768 1081L640 1081L640 1081L512 1081L512 1081L384 1081L384 1081L256 1081L256 1081L128 1081L128 1081L0 1081Z" fill="#4cb442"></path><path d="M0 954L128 954L128 936L256 936L256 1001L384 1001L384 958L512 958L512 1027L640 1027L640 951L768 951L768 972L896 972L896 1001L1024 1001L1024 996L1152 996L1152 1023L1280 1023L1280 978L1408 978L1408 977L1536 977L1536 1013L1664 1013L1664 935L1792 935L1792 1014L1920 1014L1920 940L1920 1081L1920 1081L1792 1081L1792 1081L1664 1081L1664 1081L1536 1081L1536 1081L1408 1081L1408 1081L1280 1081L1280 1081L1152 1081L1152 1081L1024 1081L1024 1081L896 1081L896 1081L768 1081L768 1081L640 1081L640 1081L512 1081L512 1081L384 1081L384 1081L256 1081L256 1081L128 1081L128 1081L0 1081Z" fill="#45a832"></path><path d="M0 999L128 999L128 999L256 999L256 1058L384 1058L384 1029L512 1029L512 1067L640 1067L640 993L768 993L768 1043L896 1043L896 1046L1024 1046L1024 1063L1152 1063L1152 988L1280 988L1280 1012L1408 1012L1408 1016L1536 1016L1536 999L1664 999L1664 1078L1792 1078L1792 1071L1920 1071L1920 1039L1920 1081L1920 1081L1792 1081L1792 1081L1664 1081L1664 1081L1536 1081L1536 1081L1408 1081L1408 1081L1280 1081L1280 1081L1152 1081L1152 1081L1024 1081L1024 1081L896 1081L896 1081L768 1081L768 1081L640 1081L640 1081L512 1081L512 1081L384 1081L384 1081L256 1081L256 1081L128 1081L128 1081L0 1081Z" fill="#3e9d20"></path></svg>