<svg id="visual" viewBox="0 0 1080 1920" width="1080" height="1920" xmlns="http://www.w3.org/2000/svg" xmlns:xlink="http://www.w3.org/1999/xlink" version="1.1"><g fill="none" stroke="#25ff39" stroke-width="2"><circle r="99" cx="869" cy="1587"></circle><circle r="5" cx="531" cy="1075"></circle><circle r="26" cx="1076" cy="905"></circle><circle r="77" cx="685" cy="803"></circle><circle r="17" cx="115" cy="1517"></circle><circle r="81" cx="41" cy="956"></circle><circle r="79" cx="280" cy="542"></circle><circle r="68" cx="427" cy="1335"></circle><circle r="45" cx="454" cy="1664"></circle><circle r="8" cx="670" cy="216"></circle><circle r="96" cx="261" cy="27"></circle><circle r="89" cx="454" cy="703"></circle><circle r="4" cx="55" cy="495"></circle><circle r="11" cx="400" cy="1914"></circle><circle r="53" cx="845" cy="555"></circle><circle r="32" cx="230" cy="1091"></circle><circle r="73" cx="228" cy="1689"></circle><circle r="17" cx="1045" cy="1400"></circle><circle r="46" cx="1006" cy="1900"></circle><circle r="19" cx="666" cy="1317"></circle><circle r="23" cx="796" cy="56"></circle><circle r="70" cx="674" cy="1736"></circle><circle r="83" cx="922" cy="283"></circle><circle r="8" cx="285" cy="886"></circle><circle r="63" cx="869" cy="1215"></circle><circle r="57" cx="3" cy="1262"></circle><circle r="24" cx="990" cy="702"></circle><circle r="53" cx="30" cy="294"></circle><circle r="45" cx="181" cy="1898"></circle><circle r="40" cx="291" cy="326"></circle><circle r="39" cx="20" cy="723"></circle><circle r="64" cx="543" cy="389"></circle><circle r="97" cx="497" cy="49"></circle><circle r="58" cx="828" cy="962"></circle><circle r="48" cx="1024" cy="47"></circle><circle r="70" cx="1072" cy="1108"></circle><circle r="92" cx="18" cy="8"></circle><circle r="97" cx="623" cy="1527"></circle><circle r="61" cx="1042" cy="482"></circle><circle r="83" cx="627" cy="592"></circle><circle r="47" cx="28" cy="1716"></circle><circle r="12" cx="204" cy="1307"></circle><circle r="83" cx="798" cy="1899"></circle><circle r="19" cx="1075" cy="1601"></circle></g></svg>